# xmcd
#
# Track frame offsets:
#	150
#	6967
#	22425
#	36122
#	51632
#	71580
#	87025
#	106885
#	123755
#	141757
#	157015
#	172340
#	193720
#	211065
#	243112
#
# Disc length: 3581 seconds
#
# Revision: 1
# Processed by: cddbd v1.5.1PL0 Copyright (c) Steve Scherf et al.
# Submitted via: audiograbber 1.83.01
#
DISCID=d40dfb0f
DTITLE=kelis - tasty
DYEAR=1900
DGENRE=electro-soul!
TTITLE0=Intro
TTITLE1=Trick Me
TTITLE2=Milkshake
TTITLE3=Keep It Down
TTITLE4=In Public (featuring Nas)
TTITLE5=Flashback
TTITLE6=Protect My Heart
TTITLE7=Millionaire (featuring Andre 3000)
TTITLE8=Glow (featuring Raphael Saadiq)
TTITLE9=Sugar Honey Iced Tea
TTITLE10=Attention (featuring Raphael Saadiq)
TTITLE11=Rolling Through The Hood
TTITLE12=Stick Up
TTITLE13=Marathon
TTITLE14=[ghost track]
EXTD=
EXTT0=
EXTT1=
EXTT2=
EXTT3=
EXTT4=
EXTT5=
EXTT6=
EXTT7=
EXTT8=
EXTT9=
EXTT10=
EXTT11=
EXTT12=
EXTT13=
EXTT14=
PLAYORDER=
